<?xml version="1.0" encoding="UTF-8" standalone="no"?>
<!-- Created with Inkscape (http://www.inkscape.org/) -->
<svg
   xmlns:svg="http://www.w3.org/2000/svg"
   xmlns="http://www.w3.org/2000/svg"
   version="1.0"
   width="4.5999999in"
   height="3.4000001in"
   viewBox="0 0 4.6 3.4"
   id="svg2484"
   xml:space="preserve">
 <defs
   id="defs2486">
  <style
   type="text/css"
   id="style2488" />
 </defs>
 <g
   id="Layer_x0020_1">
  
  <g
   id="_59007160">
   <path
   d="M 4.41053,3.36027 C 4.4757347,3.36027 4.528621,3.3073881 4.528621,3.242164 L 4.528621,2.492262 C 4.528621,2.4270376 4.4757352,2.37416 4.41053,2.37416 L 0.17449,2.3741561 C 0.1092892,2.3741561 0.056399,2.4270419 0.056399,2.4922621 L 0.056399,3.2421641 C 0.056399,3.3073846 0.1092848,3.3602701 0.17449,3.3602701 L 4.41053,3.3602701 L 4.41053,3.36027 z "
   style="fill:black"
   id="_120344872" />
   <polygon
   points="0.228492,3.24349 0.228492,2.5135 0.297437,2.5135 0.297437,3.24349 0.228492,3.24349 "
   style="fill:white"
   id="_120360776" />
   <path
   d="M 0.497008,3.24349 L 0.4361773,3.24349 L 0.4361773,2.718305 L 0.497008,2.718305 L 0.497008,2.791305 C 0.5456734,2.7396003 0.5933269,2.704116 0.666323,2.704116 C 0.730197,2.704116 0.789,2.7243916 0.826512,2.7791396 C 0.8518624,2.8166514 0.8528742,2.8561947 0.8528742,2.8997896 L 0.8528742,3.2434906 L 0.7920435,3.2434906 L 0.7920435,2.9008016 C 0.7920435,2.8065142 0.7535159,2.7588646 0.6561855,2.7588646 C 0.5811619,2.7588646 0.5294535,2.80753 0.5101895,2.8612666 C 0.4980241,2.8947194 0.4970084,2.9241249 0.4970084,2.9606249 L 0.4970084,3.2434909 L 0.497008,3.24349 z "
   style="fill:white"
   id="_60552680" />
   <path
   d="M 1.14378,3.24552 C 1.1295871,3.2485594 1.1032249,3.2576854 1.0738233,3.2576854 C 1.0140044,3.2576854 0.9805477,3.2313232 0.9805477,3.1532604 L 0.9805477,2.7690044 L 0.9065359,2.7690044 L 0.9065359,2.7183075 L 0.9805477,2.7183075 L 0.9805477,2.5723115 L 1.0413823,2.5723115 L 1.0413823,2.7183075 L 1.1397248,2.7183075 L 1.1397248,2.7690044 L 1.0413823,2.7690044 L 1.0413823,3.1289214 C 1.0413823,3.1806301 1.0434059,3.2029371 1.0940988,3.2029371 C 1.1103232,3.2029371 1.1275555,3.1998938 1.1437799,3.1958387 L 1.1437799,3.2455198 L 1.14378,3.24552 z "
   style="fill:white"
   id="_120205312" />
   <path
   d="M 1.23791,2.99509 C 1.2368943,3.108641 1.297725,3.202933 1.414319,3.202933 C 1.4934017,3.202933 1.555248,3.1593385 1.573496,3.082283 L 1.6414251,3.0822791 C 1.6110078,3.1816374 1.5481495,3.2576811 1.4143191,3.2576811 C 1.2460201,3.2576811 1.1730201,3.1380471 1.1730201,2.9829251 C 1.1730201,2.8298311 1.2642681,2.7041141 1.4143191,2.7041141 C 1.5582881,2.7041141 1.6464921,2.8065121 1.6454801,2.9950901 L 1.2379091,2.9950901 L 1.23791,2.99509 z M 1.580595,2.9443971 C 1.580595,2.8419951 1.5238194,2.7588621 1.414319,2.7588621 C 1.30685,2.7588621 1.250075,2.8450393 1.237906,2.9443971 L 1.580595,2.9443971 z "
   style="fill:white"
   id="_59501640" />
   <path
   d="M 1.78735,3.24349 L 1.7265154,3.24349 L 1.7265154,2.718305 L 1.78735,2.718305 L 1.78735,2.8166515 L 1.7893776,2.8166515 C 1.8228343,2.7325019 1.8725115,2.7041165 1.9607166,2.7041165 L 1.9607205,2.7700141 C 1.8238505,2.7669747 1.7873505,2.8683606 1.7873505,2.9859711 L 1.7873505,3.2434911 L 1.78735,3.24349 z "
   style="fill:white"
   id="_58461464" />
   <path
   d="M 2.26162,2.9373 C 2.2839231,2.9352724 2.321435,2.9291898 2.3417106,2.9200677 C 2.3619901,2.9109417 2.3640177,2.8835677 2.3640177,2.8653157 C 2.3640177,2.8034732 2.3275177,2.7588627 2.2332307,2.7588627 C 2.1490811,2.7588627 2.0912897,2.7862367 2.0801367,2.8774847 L 2.0182902,2.8774808 C 2.0274162,2.7537918 2.1196762,2.7041148 2.2342432,2.7041148 C 2.3407002,2.7041148 2.4248492,2.7456817 2.4248492,2.8673428 L 2.4248492,3.1532518 C 2.4248492,3.2009053 2.4370146,3.2120589 2.4887232,3.1938069 L 2.4887232,3.2414565 C 2.4795972,3.2444998 2.4583059,3.2515982 2.4410697,3.2515982 C 2.4309319,3.2515982 2.4228217,3.2505824 2.4136957,3.2485549 C 2.3731445,3.2424722 2.3660461,3.206988 2.3650303,3.170488 C 2.3143413,3.2272636 2.2453963,3.2576809 2.1693573,3.2576809 C 2.0770935,3.2576809 1.9939593,3.2080037 1.9939593,3.1066179 C 1.9939593,3.0184092 2.05479,2.9646769 2.1774673,2.9484529 L 2.2616208,2.9372994 L 2.26162,2.9373 z M 2.364018,2.9677134 C 2.3123093,2.9890087 2.259589,2.9930638 2.206868,2.9971189 C 2.1146082,3.0042134 2.058844,3.037674 2.058844,3.1086469 C 2.058844,3.172517 2.1146038,3.2029343 2.172395,3.2029343 C 2.2687139,3.2029343 2.364017,3.1562965 2.364017,3.0498403 L 2.364017,2.9677143 L 2.364018,2.9677134 z "
   style="fill:white"
   id="_59080488" />
   <path
   d="M 2.91548,2.88357 C 2.8941847,2.8055031 2.8404485,2.758865 2.759342,2.758865 C 2.634645,2.758865 2.582936,2.872416 2.582936,2.981912 C 2.5829399,3.092424 2.6336289,3.202936 2.759342,3.202936 C 2.8495743,3.202936 2.90635,3.1491998 2.920543,3.062011 L 2.9854367,3.062011 C 2.9641414,3.178602 2.8911414,3.257684 2.7593427,3.257684 C 2.5920627,3.257684 2.5180517,3.137034 2.5180517,2.981912 C 2.5180517,2.835916 2.6022013,2.704117 2.7593427,2.704117 C 2.8799927,2.704117 2.9590707,2.7619044 2.9773227,2.88357 L 2.9154802,2.88357 L 2.91548,2.88357 z "
   style="fill:white"
   id="_59736872" />
   <path
   d="M 3.25099,3.24552 C 3.2367971,3.2485594 3.2104349,3.2576854 3.1810333,3.2576854 C 3.1212183,3.2576854 3.0877577,3.2313232 3.0877577,3.1532604 L 3.0877616,2.7690044 L 3.0137459,2.7690044 L 3.0137459,2.7183075 L 3.0877616,2.7183075 L 3.0877616,2.5723115 L 3.1485884,2.5723115 L 3.1485884,2.7183075 L 3.2469388,2.7183075 L 3.2469388,2.7690044 L 3.1485884,2.7690044 L 3.1485884,3.1289214 C 3.1485884,3.1806301 3.150616,3.2029371 3.2013089,3.2029371 C 3.2175333,3.2029371 3.2347695,3.1998938 3.25099,3.1958387 L 3.25099,3.2455198 L 3.25099,3.24552 z "
   style="fill:white"
   id="_120361120" />
   <path
   d="M 3.31674,3.24349 L 3.31674,2.718305 L 3.3775707,2.718305 L 3.3775707,3.24349 L 3.31674,3.24349 z M 3.3137006,2.603742 L 3.3137006,2.5135058 L 3.380614,2.5135058 L 3.380614,2.603742 L 3.3137006,2.603742 z "
   style="fill:white"
   id="_120191968" />
   <polygon
   points="3.43631,2.7183 3.50221,2.7183 3.67254,3.16846 3.84287,2.7183 3.90877,2.7183 3.70498,3.24349 3.63705,3.24349 3.43631,2.7183 "
   style="fill:white"
   id="_120605584" />
   <path
   d="M 3.99598,2.99509 C 3.9949682,3.108641 4.055795,3.202933 4.172389,3.202933 C 4.2514717,3.202933 4.313314,3.1593385 4.331562,3.082283 L 4.3994911,3.0822791 C 4.3690777,3.1816374 4.3062194,3.2576811 4.1723891,3.2576811 C 4.0040901,3.2576811 3.9310901,3.1380471 3.9310901,2.9829251 C 3.9310901,2.8298311 4.0223381,2.7041141 4.1723891,2.7041141 C 4.3163581,2.7041141 4.4045621,2.8065121 4.4035461,2.9950901 L 3.9959791,2.9950901 L 3.99598,2.99509 z M 4.338661,2.9443971 C 4.338661,2.8419951 4.2818854,2.7588621 4.172389,2.7588621 C 4.064924,2.7588621 4.008145,2.8450393 3.995976,2.9443971 L 4.338661,2.9443971 z "
   style="fill:white"
   id="_120361352" />
   <path
   d="M 4.09139,0.324598 C 4.0910514,0.3373854 4.090638,0.3478893 4.0902128,0.3516531 C 4.0869372,0.380472 4.0902128,0.394094 4.0071183,0.394094 C 3.9240277,0.394094 3.9273073,0.380472 3.9240277,0.3516531 C 3.9229647,0.34227121 3.9219765,0.2909602 3.9220789,0.2669523 C 3.9221773,0.2429444 3.9229608,0.1916334 3.9240277,0.1822554 C 3.9273073,0.1534326 3.9240277,0.1398105 4.0071183,0.1398105 C 4.0902128,0.1398105 4.0869333,0.1534365 4.0902128,0.1822554 C 4.0906577,0.1861806 4.0910553,0.1974877 4.0913742,0.2110585 L 4.2050392,0.21105456 C 4.204307,0.18529476 4.2030865,0.16377106 4.2018148,0.15255456 C 4.1952637,0.094916763 4.2179683,0.039727563 4.0072478,0.039727563 C 3.7965308,0.039723626 3.8192358,0.094916563 3.8126808,0.15255456 C 3.8105509,0.17131436 3.8085745,0.21893646 3.8087793,0.26695256 C 3.808984,0.31496826 3.8105509,0.36259036 3.8126808,0.38135456 C 3.819236,0.43898846 3.7965312,0.49418156 4.0072478,0.49418156 C 4.2179718,0.49417763 4.1952638,0.43898866 4.2018148,0.38135456 C 4.2030629,0.37038996 4.2041141,0.34958286 4.2048148,0.32460256 L 4.0913898,0.32459863 L 4.09139,0.324598 z "
   style="fill:black"
   id="_59759256" />
   <polygon
   points="2.74361,0.051252 2.63272,0.375244 2.52181,0.051252 2.35589,0.0503858 2.35589,0.48528 2.4668,0.48528 2.4668,0.161283 2.5777,0.48528 2.68861,0.48528 2.79864,0.161283 2.79864,0.48528 2.90954,0.48528 2.90954,0.0503858 2.74361,0.051252 "
   style="fill:black"
   id="_59358120" />
   <polygon
   points="4.22993,0.0503858 4.54869,0.0503858 4.54869,0.161283 4.44476,0.161283 4.44476,0.48528 4.33386,0.48528 4.33386,0.161283 4.22993,0.161283 4.22993,0.0503858 "
   style="fill:black"
   id="_58923920" />
   <polygon
   points="3.375,0.48528 3.5022,0.0499567 3.66754,0.0499567 3.79504,0.48528 3.68414,0.48528 3.65794,0.395323 3.51242,0.395323 3.53304,0.324598 3.63698,0.324598 3.58546,0.147311 3.4859,0.48528 3.375,0.48528 "
   style="fill:black"
   id="_59357072" />
   <path
   d="M 2.0888,0.139811 C 2.1718945,0.139811 2.168615,0.153437 2.1718945,0.1822559 C 2.1729614,0.19163385 2.173741,0.2429449 2.1738433,0.2669528 C 2.1739457,0.2909607 2.1729575,0.3422717 2.1718945,0.3516536 C 2.168615,0.3804725 2.1718945,0.3940945 2.0888,0.3940945 C 2.0057134,0.3940945 2.008985,0.3804725 2.0057094,0.3516536 C 2.0046464,0.34227171 2.0036582,0.2909607 2.0037606,0.2669528 C 2.0038629,0.2429449 2.0046425,0.1916339 2.0057094,0.1822559 C 2.008985,0.1534331 2.0057094,0.139811 2.0888,0.139811 L 2.0889299,0.039724 C 1.8782129,0.039724 1.9009179,0.0949169 1.8943629,0.152555 C 1.892233,0.1713148 1.8902566,0.2189369 1.8904614,0.266953 C 1.8906661,0.3149687 1.892233,0.3625908 1.8943629,0.381355 C 1.900918,0.4389889 1.8782133,0.494182 2.0889299,0.494182 C 2.2996499,0.49417806 2.2769459,0.4389891 2.2834969,0.381355 C 2.2856308,0.3625912 2.2871977,0.3149692 2.2873985,0.266953 C 2.2876032,0.2189373 2.2856308,0.1713191 2.2834969,0.152555 C 2.2769457,0.0949172 2.2996504,0.039728 2.0889299,0.039728 L 2.0888,0.139811 L 2.0888,0.139811 z "
   style="fill:black"
   id="_119970072" />
   <path
   d="M 1.71434,0.324598 C 1.7140014,0.3373854 1.713588,0.3478893 1.7131589,0.3516531 C 1.7098833,0.380472 1.7131589,0.394094 1.6300683,0.394094 C 1.5469817,0.394094 1.5502573,0.380472 1.5469777,0.3516531 C 1.5459147,0.34227121 1.5449265,0.2909602 1.5450289,0.2669523 C 1.5451273,0.2429444 1.5459147,0.1916334 1.5469777,0.1822554 C 1.5502572,0.1534326 1.5469777,0.1398105 1.6300683,0.1398105 C 1.7131589,0.1398105 1.7098833,0.1534365 1.7131589,0.1822554 C 1.7136077,0.1861806 1.7140014,0.1974877 1.7143203,0.2110585 L 1.8279893,0.21105456 C 1.827257,0.18529476 1.8260405,0.16377106 1.8247649,0.15255456 C 1.8182137,0.094916763 1.8409145,0.039727563 1.6301979,0.039727563 C 1.4194809,0.039723626 1.4421859,0.094916563 1.4356309,0.15255456 C 1.4334971,0.17131436 1.4315246,0.21893646 1.4317293,0.26695256 C 1.4319341,0.31496826 1.4334971,0.36259036 1.4356309,0.38135456 C 1.442186,0.43898846 1.4194813,0.49418156 1.6301979,0.49418156 C 1.8409179,0.49417763 1.8182099,0.43898866 1.8247649,0.38135456 C 1.826009,0.37038996 1.8270602,0.34958286 1.827761,0.32460256 L 1.71434,0.32459863 L 1.71434,0.324598 z "
   style="fill:black"
   id="_60339936" />
   <path
   d="M 3.17957,0.385815 L 3.1122787,0.38577957 L 3.1122787,0.28657877 L 3.1795543,0.28617325 C 3.2626488,0.28617325 3.26007,0.27255125 3.2633456,0.24373235 C 3.2644165,0.23434652 3.2641921,0.24205912 3.2640897,0.21805125 C 3.2639873,0.19404335 3.2644125,0.20228745 3.2633456,0.19290955 C 3.26007,0.16409065 3.2626448,0.15046075 3.1795543,0.15046075 L 3.1122433,0.15063792 L 3.1123575,0.48484692 L 3.0012355,0.48484692 L 3.0012355,0.05038592 L 3.1795705,0.050381983 C 3.3902945,0.050381983 3.3671965,0.10572058 3.3749485,0.16320898 C 3.3758697,0.17002 3.3758697,0.20145698 3.3758697,0.21840588 C 3.3758697,0.23202398 3.3758697,0.26346098 3.3749485,0.27342948 C 3.3696296,0.33118928 3.390291,0.38581948 3.1795705,0.38581548 L 3.17957,0.385815 z "
   style="fill:black"
   id="_59963744" />
   <path
   d="M 1.02277,2.12283 L 0.328573,2.1220229 C 0.228128,2.1220229 0.146711,2.0405938 0.146711,1.9401609 L 0.146711,0.88349091 C 0.146711,0.78304191 0.2281283,0.70162491 0.328573,0.70162491 L 0.763045,0.70113279 C 0.8152222,0.70113279 0.8575293,0.65883749 0.8575293,0.60665249 L 0.85880095,0.18416849 C 0.85880095,0.16230239 0.87652925,0.14457009 0.89839935,0.14457009 L 1.1531003,0.14457009 C 1.1749705,0.14457009 1.1927145,0.16230239 1.1927145,0.18417249 L 1.1953248,2.0833725 C 1.1953248,2.1052386 1.1775925,2.1229867 1.1557303,2.1229867 L 1.0227693,2.1228292 L 1.019537,2.2171953 L 1.193273,2.2171441 C 1.2454462,2.2171441 1.2877533,2.1748528 1.2877533,2.1226638 L 1.2877533,0.14381383 C 1.2877533,0.091644526 1.2454462,0.049349226 1.193269,0.049349226 L 0.85910801,0.049345289 C 0.80693481,0.049345289 0.76462371,0.091644489 0.76462371,0.14381769 L 0.76510009,0.56736069 C 0.76510009,0.58922679 0.74736779,0.60697489 0.72548589,0.60697489 L 0.32857289,0.60624654 C 0.17545089,0.60624654 0.051316888,0.73036454 0.051316888,0.88349054 L 0.051320825,1.9401505 C 0.051320825,2.0932565 0.17545083,2.2173905 0.32857283,2.2173905 L 1.0195378,2.2171898 L 1.0227701,2.1228237 L 1.02277,2.12283 z "
   style="fill:black"
   id="_59947616" />
   <path
   d="M 0.76461,1.73389 L 0.76461,1.050276 C 0.76461,0.9929925 0.7181651,0.946548 0.660862,0.946548 C 0.6035785,0.946548 0.557134,0.9929929 0.557134,1.05028 L 0.557134,1.788201 C 0.557134,1.8454923 0.6035749,1.891949 0.660862,1.891949 C 0.7181651,1.891949 0.76461,1.8454923 0.76461,1.788205 L 0.76461,1.73389 L 0.8589092,1.7371223 L 0.8589092,1.788201 C 0.8589092,1.897567 0.7702399,1.986236 0.6608622,1.986236 C 0.5515042,1.986236 0.4628342,1.8975667 0.4628342,1.788205 L 0.4628342,1.050276 C 0.4628342,0.94091398 0.5515035,0.85224798 0.6608622,0.85224798 C 0.7702402,0.85224404 0.8589092,0.94091728 0.8589092,1.050279 L 0.8589092,1.737122 L 0.76461,1.7338897 L 0.76461,1.73389 z "
   style="fill:black"
   id="_59263952" />
   <path
   d="M 1.68258,2.12283 L 1.552659,2.1228379 C 1.5307732,2.1228379 1.5130448,2.1050899 1.5130448,2.0832237 L 1.5146393,0.74208367 C 1.5146393,0.72020177 1.5323676,0.70247347 1.5542456,0.70247347 L 1.8089546,0.70247347 C 1.8308326,0.70247347 1.8485648,0.72020177 1.8485648,0.74208367 L 1.851179,2.0832137 C 1.851179,2.1050956 1.8334467,2.1228279 1.8115766,2.1228279 L 1.6825806,2.1228357 L 1.6825806,2.216816 L 1.8491236,2.2169893 C 1.9013126,2.2169893 1.9436039,2.174698 1.9436039,2.1225208 L 1.9436039,0.70173078 C 1.9436039,0.64956148 1.9013086,0.60725048 1.8491236,0.60725048 L 1.5149466,0.60725048 C 1.4627734,0.60725048 1.4204781,0.64956148 1.4204781,0.70173078 L 1.4202812,2.1221608 C 1.4202812,2.1743458 1.4622536,2.2166411 1.5144269,2.2166411 L 1.6825809,2.2168182 L 1.6825809,2.1228379 L 1.68258,2.12283 z "
   style="fill:black"
   id="_59378368" />
   <path
   d="M 2.88252,0.966354 L 2.602709,0.96597211 C 2.5166106,0.96597211 2.446788,1.035791 2.446788,1.1218931 C 2.446788,1.2080033 2.5166069,1.2778101 2.602705,1.2778101 L 2.986075,1.2788534 C 3.086508,1.2788534 3.167937,1.3602904 3.167937,1.4607234 L 3.1666535,1.9379914 C 3.1666535,2.0384404 3.0852204,2.1198574 2.9847875,2.1198574 L 2.2237595,2.1212393 C 2.2018934,2.1212393 2.1841493,2.1034952 2.1841493,2.0816291 L 2.1841493,1.8967861 C 2.1841493,1.8749042 2.2018934,1.8571759 2.2237595,1.8571759 L 2.7424245,1.855483 C 2.8285347,1.855483 2.8983535,1.7856799 2.8983535,1.699566 C 2.8983575,1.6134518 2.8285346,1.543649 2.7424205,1.543649 L 2.3669205,1.5421648 C 2.2664875,1.5421648 2.1850545,1.4607357 2.1850545,1.3603028 L 2.1850545,0.88349575 C 2.1850545,0.78304675 2.2664876,0.70162975 2.3669205,0.70162975 L 3.0723695,0.69833054 C 3.0942356,0.69833054 3.111964,0.71607854 3.111964,0.73794474 L 3.1119798,0.92700374 C 3.1119798,0.94886984 3.0942475,0.96661794 3.0723656,0.96661794 L 2.8825196,0.96635416 L 2.8792873,1.059307 L 3.1113113,1.0593778 C 3.1634806,1.0593778 3.2057916,1.0174054 3.2057916,0.96523613 L 3.206142,0.70039713 C 3.206142,0.64820813 3.1638467,0.60591683 3.1116577,0.60591683 L 2.3669217,0.60625147 C 2.2138117,0.60625147 2.0896817,0.73036947 2.0896817,0.88349547 L 2.0896817,1.3603025 C 2.0896817,1.5134085 2.2138117,1.6375425 2.3669217,1.6375425 L 2.7424257,1.6369007 C 2.7770477,1.6369007 2.8051029,1.6649558 2.8051029,1.6995661 C 2.8051029,1.7341881 2.7770478,1.7622472 2.7424218,1.7622472 L 2.1834098,1.7621331 C 2.1312326,1.7621331 2.0889413,1.8044284 2.0889413,1.8566174 L 2.0889413,2.1209204 C 2.0889413,2.1731054 2.1312326,2.2154007 2.1834059,2.2154007 L 2.9847919,2.2152314 C 3.1379019,2.2152314 3.2620279,2.0911174 3.2620279,1.9379954 L 3.2633153,1.4607194 C 3.2633153,1.3076134 3.1391853,1.1834794 2.9860753,1.1834794 L 2.6027093,1.1845739 C 2.5680991,1.1845739 2.54004,1.1565148 2.54004,1.1218928 C 2.54004,1.0872786 2.5680951,1.0592235 2.6027054,1.0592235 L 2.8792884,1.0593061 L 2.8825207,0.96635334 L 2.88252,0.966354 z "
   style="fill:black"
   id="_59501248" />
   <path
   d="M 4.29271,1.22856 L 4.412891,1.22856 C 4.434769,1.22856 4.4524973,1.2108317 4.4524973,1.1889498 L 4.4519973,0.8835008 C 4.4519973,0.7830518 4.37058,0.7016348 4.2701313,0.7016348 L 3.6688993,0.7016348 C 3.5684543,0.7016348 3.4870173,0.7830521 3.4870173,0.8835008 L 3.4870173,1.9401608 C 3.4870173,2.0405978 3.5684504,2.1220268 3.6688953,2.1220268 L 4.2701313,2.1220268 C 4.3705803,2.1220268 4.4519973,2.0405977 4.4519973,1.9401648 L 4.4524973,1.6497278 C 4.4524973,1.6278498 4.434769,1.6101215 4.4128871,1.6101215 L 4.1860721,1.6101215 C 4.164206,1.6101215 4.1464737,1.6278498 4.1464737,1.6497317 L 4.1477493,1.7882077 C 4.1477493,1.8975737 4.0788753,1.9862427 3.9695133,1.9862427 C 3.8601393,1.9862427 3.7912853,1.8975734 3.7912853,1.7882117 L 3.7912853,1.0502827 C 3.7912853,0.9409207 3.8601396,0.8522547 3.9695133,0.8522547 C 4.0788793,0.85225076 4.1477493,0.940924 4.1477493,1.0502857 L 4.1464776,1.1889467 C 4.1464776,1.2108286 4.1642059,1.2285569 4.1860721,1.2285569 L 4.2927101,1.2285569 L 4.2894779,1.3237774 L 4.1467849,1.3237774 C 4.0946117,1.3237774 4.0523006,1.2814743 4.0523006,1.229301 L 4.0534502,1.050281 C 4.0534502,0.9929975 4.0268006,0.946553 3.9695132,0.946553 C 3.912214,0.946553 3.8855683,0.9929979 3.8855683,1.050285 L 3.8855683,1.788206 C 3.8855683,1.8454973 3.912214,1.891954 3.9695132,1.891954 C 4.0268045,1.891954 4.0534463,1.8454973 4.0534463,1.78821 L 4.0523045,1.609375 C 4.0523045,1.5572018 4.0946076,1.5148947 4.1467848,1.5148947 L 4.4530568,1.5148908 C 4.5052458,1.5148908 4.5475411,1.5572018 4.5475411,1.609379 L 4.5473758,1.940159 C 4.5473758,2.093265 4.4232538,2.217399 4.2701318,2.217399 L 3.6688998,2.217399 C 3.5157778,2.217399 3.3916438,2.093269 3.3916438,1.940163 L 3.3916438,0.88349296 C 3.3916438,0.73036696 3.5157738,0.60624896 3.6688958,0.60624896 L 4.2701318,0.60624896 C 4.4232578,0.60624896 4.5473718,0.73036696 4.5473718,0.88349296 L 4.5475411,1.229292 C 4.5475411,1.2814692 4.5052458,1.3237763 4.4530568,1.3237763 L 4.2894778,1.3237723 L 4.2927101,1.2285518 L 4.29271,1.22856 z "
   style="fill:black"
   id="_59390680" />
  </g>
 </g>
</svg>